<?xml version="1.0" encoding="utf-8"?>
<!-- Generator: Adobe Illustrator 23.0.3, SVG Export Plug-In . SVG Version: 6.00 Build 0)  -->
<svg version="1.1" id="Layer_1" xmlns="http://www.w3.org/2000/svg" xmlns:xlink="http://www.w3.org/1999/xlink" x="0px" y="0px"
	 viewBox="0 0 1212 434" style="enable-background:new 0 0 1212 434;" xml:space="preserve">
<style type="text/css">
	.st0{fill:#FFFFFF;}
	.st1{fill:#D6C8AA;}
</style>
<title>aci_main_logo_1</title>
<g>
	<path class="st0" d="M401.8,279.5c-0.8-1.2-2-2.2-3.4-2.9c-1.5-0.6-3.1-0.9-4.7-0.9c-2.6-0.1-5.2,0.7-7.2,2.4
		c-1.8,1.6-2.8,4-2.7,6.4c-0.1,2.4,0.8,4.7,2.5,6.3c1.9,1.7,4.4,2.5,7,2.4c1.6,0,3.1-0.3,4.6-0.9c1.4-0.7,2.6-1.7,3.6-2.9l2.8,1.7
		c-2.6,3.3-6.7,5.2-10.9,5.1c-3.9,0-7-1-9.3-3.1c-2.3-2.1-3.6-5.2-3.5-8.4c-0.2-3.3,1.2-6.4,3.6-8.7c2.4-2.1,5.6-3.2,9.5-3.2
		c4.7,0,8.3,1.7,10.8,5L401.8,279.5z"/>
	<path class="st0" d="M447.9,295.9l-3.3-6.8h-11.3l-3.3,6.8h-3.7l11.5-22.9h2.5l11.1,22.9H447.9z M439,277.8l-4.3,8.4h8.4L439,277.8
		z"/>
	<path class="st0" d="M491.2,285.2c-1.9,1-4.1,1.5-6.2,1.4h-7.8v9.4H474V273h11.4c6.1,0,9.1,2.3,9.1,6.9
		C494.5,282.1,493.2,284.2,491.2,285.2z M485.5,275.9h-8.3v7.7h8.4c1.4,0.1,2.8-0.3,4-0.9c1-0.5,1.7-1.6,1.7-2.8
		C491.2,277.3,489.3,275.9,485.5,275.9z"/>
	<path class="st0" d="M518.6,295.9V273h3.2v22.9H518.6z"/>
	<path class="st0" d="M557,275.9v20h-3.2v-20H545V273h20.8v2.9H557z"/>
	<path class="st0" d="M607.9,295.9l-3.3-6.8h-11.3l-3.4,6.8h-3.7l11.5-22.9h2.5l11.1,22.9H607.9z M599.1,277.8l-4.3,8.4h8.4
		L599.1,277.8z"/>
	<path class="st0" d="M634,295.9V273h3.2v20h14.5v2.9L634,295.9z"/>
	<path class="st0" d="M710.3,295.9V273h3.2v22.9H710.3z"/>
	<path class="st0" d="M757.2,295.9l-15.5-17.8v17.8h-3.2V273h2.9c2,2.4,4.6,5.4,7.8,9c3.9,4.4,6.5,7.3,7.7,8.7V273h3.2v22.9H757.2z"
		/>
	<path class="st0" d="M796.4,295.9H794L783,273h3.5l8.8,18.2l8.6-18.2h3.5L796.4,295.9z"/>
	<path class="st0" d="M830,295.9V273h19v2.9h-15.8v6.6h14v2.9h-14v7.5h15.9v2.9L830,295.9z"/>
	<path class="st0" d="M883.2,296.2c-2.6,0.1-5.2-0.4-7.5-1.5c-2.4-1.2-3.8-3.7-3.7-6.4v-1.5h3.3v1.4c0,3.4,2.7,5.1,8,5.1
		c1.6,0.1,3.2-0.2,4.7-0.8c1.2-0.4,2.1-1.5,2.2-2.7c0.1-0.7-0.2-1.4-0.7-1.9c-0.7-0.5-1.5-0.9-2.4-1.1c-0.7-0.2-2.3-0.5-4.8-1
		c-2.1-0.3-4.1-0.9-6-1.7c-2.3-1.1-3.5-2.8-3.5-5c0-4.1,3.3-6.2,9.8-6.2c6.8,0,10.2,2.8,10.3,8.3h-3.2c-0.2-2.4-0.8-3.9-2.1-4.5
		c-1.6-0.7-3.3-1-5.1-0.9c-4.4,0-6.6,1.1-6.6,3.3c0,1,0.6,2,1.6,2.3c1.4,0.6,3,0.9,4.5,1.1c4.2,0.7,7,1.4,8.4,2.3c1.8,1,3,2.9,2.9,5
		c0,2.3-1.2,4-3.6,5.1C887.8,295.8,885.5,296.2,883.2,296.2z"/>
	<path class="st0" d="M928.3,275.9v20H925v-20h-8.8V273H937v2.9H928.3z"/>
	<path class="st0" d="M983.2,295.9v-16.1l-8.8,16.2h-2.3l-8.8-16.2v16.2h-3.2V273h3.2l10,18.4l10-18.4h3.2v22.9H983.2z"/>
	<path class="st0" d="M1011.5,295.9V273h19v2.9h-15.8v6.6h14v2.9h-14v7.5h15.9v2.9L1011.5,295.9z"/>
	<path class="st0" d="M1072.9,295.9l-15.5-17.8v17.8h-3.2V273h2.9c2,2.4,4.6,5.4,7.8,9c3.9,4.4,6.5,7.3,7.7,8.7V273h3.2v22.9H1072.9
		z"/>
	<path class="st0" d="M1111,275.9v20h-3.2v-20h-8.8V273h20.8v2.9H1111z"/>
	<path class="st0" d="M1153.4,296.2c-2.6,0.1-5.2-0.4-7.5-1.5c-2.4-1.2-3.8-3.7-3.7-6.4v-1.5h3.3v1.4c0,3.4,2.7,5.1,8,5.1
		c1.6,0.1,3.2-0.2,4.7-0.8c1.2-0.4,2.1-1.5,2.2-2.7c0.1-0.7-0.2-1.4-0.7-1.9c-0.7-0.5-1.5-0.9-2.4-1.1c-0.7-0.2-2.3-0.5-4.8-1
		c-2.1-0.3-4.1-0.9-6-1.7c-2.3-1.1-3.5-2.8-3.5-5c0-4.1,3.3-6.2,9.8-6.2c6.8,0,10.2,2.8,10.3,8.3h-3.2c-0.2-2.4-0.9-3.9-2.1-4.5
		c-1.6-0.7-3.3-1-5.1-0.9c-4.4,0-6.6,1.1-6.6,3.3c0,1,0.6,2,1.6,2.3c1.4,0.6,3,0.9,4.5,1.1c4.2,0.7,7,1.5,8.4,2.3c1.8,1,3,2.9,2.9,5
		c0,2.3-1.2,4-3.6,5.1C1157.9,295.8,1155.7,296.2,1153.4,296.2z"/>
	<path class="st1" d="M469,232.2l-13.5-27.8h-46.4l-13.8,27.8h-15l47.2-94.1h10.4l45.5,94.1L469,232.2z M432.8,157.7l-17.5,34.7
		h34.4L432.8,157.7z"/>
	<path class="st1" d="M646,232.2v-66.3l-36,66.3h-9.6l-36-66.4v66.4h-13.3v-94.1h13l41,75.7l41.1-75.6h13v94.1L646,232.2z"/>
	<path class="st1" d="M815.4,232.2l-13.5-27.8h-46.4l-13.8,27.8h-15l47.2-94.1h10.4l45.6,94.1H815.4z M779.2,157.7l-17.5,34.7h34.4
		L779.2,157.7z"/>
	<path class="st1" d="M983.6,164.6c-4.1-5.6-8.7-9.5-13.8-11.9s-11.5-3.5-19.2-3.5c-12.5,0-22.4,3.3-29.6,9.8s-10.9,15.3-10.9,26.3
		c0,10.9,3.4,19.6,10.3,26.1s16.4,9.7,28.7,9.7c7.3,0,13.6-1.2,18.8-3.6c5.2-2.4,10.1-6.4,14.7-11.9l11.4,6.8
		c-11.5,13.9-26.4,20.8-44.7,20.8c-15.9,0-28.6-4.3-38.2-12.8c-9.5-8.6-14.3-20.1-14.3-34.5c0-14.9,4.9-26.7,14.7-35.5
		s22.9-13.2,39.2-13.2c19.1,0,33.8,6.9,44.3,20.7L983.6,164.6z"/>
	<path class="st1" d="M1147.9,232.2l-13.5-27.8H1088l-13.8,27.8h-15l47.2-94.1h10.4l45.5,94.1H1147.9z M1111.6,157.7l-17.5,34.7
		h34.4L1111.6,157.7z"/>
	<path class="st1" d="M57.1,181.7v80.8c0,83.6,114.8,119.9,119.7,121.5l2.1,0.7l2.1-0.6c4.9-1.5,119.7-37.9,119.7-121.5v-80.8
		L57.1,181.7z M178.9,369.5c-15.3-5.2-107.4-39.7-107.4-107v-66.4h107.4V369.5z"/>
	<path class="st1" d="M309.3,60.5l-8.5-11.1l-8.5,11.1l8.4,11.1l-76,59.6l-45.9-59.6l8.4-11.1l-8.5-11.1l-8.5,11.1l8.4,11.1
		l-45.9,59.6l-76-59.6l8.4-11.1l-8.5-11.1l-8.5,11.1l8.5,11.1v97.8h244V71.6L309.3,60.5z M71.6,154.7V102l63.9,50l43.3-56.2v58.9
		H71.6z"/>
</g>
</svg>
